<svg viewBox="0 0 183.54 171.5" xmlns="http://www.w3.org/2000/svg"><path d="m33.57 131.85 24.26-29.04 18.27 22.71-34.21 17.29z" fill="#536666"/><path d="m57.8 105.17 15.96 19.84-31.44 15.89-6.84-9.01 22.32-26.73m.05-4.72-2.35 2.81-22.32 26.73-1.53 1.83 1.45 1.9 6.84 9.01 1.51 1.99 2.23-1.13 31.44-15.89 3.31-1.67-2.32-2.89-15.96-19.84-2.29-2.85z" fill="#2f4647"/><path d="m53.62 110.19-7.2 8.63c2.04 1.06 4.36 2.69 6.85 5.19 3.04 3.04 4.8 5.95 5.81 8.44l8.79-4.44-14.25-17.81z" opacity=".1"/><path d="m31.27 170v-32.5h15.25l-5.08 32.5z" fill="#536666"/><path d="m44.77 139-4.62 29.5h-7.38v-29.5zm3.5-3h-18.51v35.5h12.95l.4-2.54 4.62-29.5z" fill="#2f4647"/><path d="m32.77 149.5c1.97.95 4.17 1.5 6.5 1.5 1.28 0 2.51-.18 3.7-.48l1.8-11.52h-12z" opacity=".1"/><circle cx="39.27" cy="136" fill="#d7d5d0" r="10" stroke="#2f4647" stroke-miterlimit="10" stroke-width="3"/><circle cx="39.27" cy="136" fill="#d7d5d0" r="4.5" stroke="#2f4647" stroke-miterlimit="10" stroke-width="2"/><path d="m39.27 146-3 23" fill="none" stroke="#2f4647" stroke-miterlimit="10"/><path d="m45.27 128 10-10" fill="none" stroke="#2f4647" stroke-miterlimit="10"/><path d="m48.27 133 13-8" fill="none" stroke="#2f4647" stroke-miterlimit="10"/><path d="m106.94 125.52 18.27-22.71 24.26 29.04-8.32 10.96z" fill="#536666"/><path d="m125.23 105.17 22.32 26.73-6.84 9.01-31.44-15.89 15.96-19.84m-.04-4.74-2.29 2.85-15.96 19.84-2.32 2.89 3.31 1.67 31.44 15.89 2.23 1.13 1.51-1.99 6.84-9.01 1.45-1.9-1.53-1.83-22.32-26.73-2.35-2.81z" fill="#2f4647"/><path d="m129.42 110.19 7.2 8.63c-2.04 1.06-4.36 2.69-6.85 5.19-3.04 3.04-4.8 5.95-5.81 8.44l-8.79-4.44 14.25-17.81z" opacity=".1"/><path d="m141.6 170-5.09-32.5h15.26v32.5z" fill="#536666"/><path d="m150.27 139v29.5h-7.38l-4.62-29.5zm3-3h-18.51l.54 3.46 4.62 29.5.4 2.54h12.95z" fill="#2f4647"/><path d="m150.27 149.5c-1.97.95-4.17 1.5-6.5 1.5-1.28 0-2.51-.18-3.7-.48l-1.8-11.52h12z" opacity=".1"/><g stroke="#2f4647" stroke-miterlimit="10"><circle cx="143.77" cy="136" fill="#d7d5d0" r="10" stroke-width="3"/><circle cx="143.77" cy="136" fill="#d7d5d0" r="4.5" stroke-width="2"/><path d="m143.77 146 3 23" fill="none"/><path d="m137.77 128-10-10" fill="none"/><path d="m134.77 133-13-8" fill="none"/><rect fill="#d7d5d0" height="19.25" rx="4.49" stroke-width="3" transform="matrix(.91830825 .39586608 -.39586608 .91830825 38.45 -1.67)" width="16.5" x="15.02" y="82.7"/><path d="m44.71 49.8s-20.59-5.28-21.29 16.01c0 0 16.89-1.58 19 13.55 0 0 3.34 3.52 2.29-6.51-1.06-10.03 0-23.05 0-23.05z" fill="#d7d5d0" stroke-width="3"/><path d="m25.53 65.78s-2.95 7.99-2.11 10.24 10.6 7.14 12.85 6.82 5.78-5.44 5.78-5.44-4.01-13.1-16.52-11.62z" fill="#d7d5d0" stroke-width="3"/><path d="m25.15 77.84-1.88 5.01s3.93 3.9 7.72 4.15l3.03-4.58s-7.14-2.76-8.86-4.58z" fill="#536666"/><path d="m11.84 130.51c-4.11-5.35-3.82-15.67 2.76-22.26-2.06-1.08-4.4-2.33-6.53-4.05-4.39 5.17-13.28 19.28-.29 30.09 0 0 8.51 2.02 4.06-3.77z" fill="#536666" stroke-width="2"/></g><path d="m5.6 109.31 5.08 2.44s.79-1.32 1.34-2.03c-1.99-1.1-3.72-2.26-4.68-3.02-.38.59-1.74 2.61-1.74 2.61z" opacity=".1"/><path d="m26.52 111.57c-1.21-.1-3.48-.36-5.36-.79l1.57 13.49s-7.53 7.17-4.55 7.09c2.99-.08 8.73-5.18 8.73-5.18l-.39-14.6z" fill="#536666" stroke="#2f4647" stroke-miterlimit="10" stroke-width="2"/><path d="m7.04 101.86c4.24-1.94 14.4-4.71 21.25 8.72.53 1.03-.26 2.25-1.41 2.16-3.95-.32-12.09-1.81-20.14-8.39-.84-.69-.68-2.03.31-2.48z" fill="#d7d5d0" stroke="#2f4647" stroke-miterlimit="10" stroke-width="3"/><path d="m25.86 69.59c3.64.51 10.35 1.62 13.47 8.95l1.04-1.38s-3.46-10.52-13.76-9.97c-.11.34-.33.94-.75 2.39z" opacity=".1"/><path d="m32.08 84.43 1.16-1.76s-5.6-2.18-7.88-3.99l-.74 2.02s4.47 3.69 7.46 3.73z" opacity=".1"/><path d="m27.38 56.47s10.14 4.3 12.39-5.77c0 0-8.62-.63-12.39 5.77z" fill="#fff" opacity=".3"/><path d="m22.5 113.61 3.1.5.05 1.97h-2.88s-.25-2.22-.27-2.46z" opacity=".1"/><rect fill="#d7d5d0" height="19.25" rx="4.49" stroke="#2f4647" stroke-miterlimit="10" stroke-width="3" transform="matrix(-.91830825 .39586608 -.39586608 -.91830825 343.99 113.66)" width="16.5" x="152.02" y="82.7"/><path d="m138.82 49.8s20.59-5.28 21.29 16.01c0 0-16.89-1.58-19 13.55 0 0-3.34 3.52-2.29-6.51 1.06-10.03 0-23.05 0-23.05z" fill="#d7d5d0" stroke="#2f4647" stroke-miterlimit="10" stroke-width="3"/><path d="m158.01 65.78s2.95 7.99 2.11 10.24-10.6 7.14-12.85 6.82-5.78-5.44-5.78-5.44 4.01-13.1 16.52-11.62z" fill="#d7d5d0" stroke="#2f4647" stroke-miterlimit="10" stroke-width="3"/><path d="m158.39 77.84 1.88 5.01s-3.93 3.9-7.72 4.15l-3.03-4.58s7.14-2.76 8.86-4.58z" fill="#536666" stroke="#2f4647" stroke-miterlimit="10"/><path d="m171.7 130.51c4.11-5.35 3.82-15.67-2.76-22.26 2.06-1.08 4.4-2.33 6.53-4.05 4.39 5.17 13.28 19.28.29 30.09 0 0-8.51 2.02-4.06-3.77z" fill="#536666" stroke="#2f4647" stroke-miterlimit="10" stroke-width="2"/><path d="m177.93 109.31-5.08 2.44s-.79-1.32-1.34-2.03c1.99-1.1 3.72-2.26 4.68-3.02.38.59 1.74 2.61 1.74 2.61z" opacity=".1"/><path d="m157.02 111.57c1.21-.1 3.48-.36 5.36-.79l-1.57 13.49s7.53 7.17 4.55 7.09c-2.99-.08-8.73-5.18-8.73-5.18l.39-14.6z" fill="#536666" stroke="#2f4647" stroke-miterlimit="10" stroke-width="2"/><path d="m176.5 101.86c-4.24-1.94-14.4-4.71-21.25 8.72-.53 1.03.26 2.25 1.41 2.16 3.95-.32 12.09-1.81 20.14-8.39.84-.69.68-2.03-.31-2.48z" fill="#d7d5d0" stroke="#2f4647" stroke-miterlimit="10" stroke-width="3"/><path d="m157.67 69.59c-3.64.51-10.35 1.62-13.47 8.95l-1.04-1.38s3.46-10.52 13.76-9.97c.11.34.33.94.75 2.39z" opacity=".1"/><path d="m151.46 84.43-1.16-1.76s5.6-2.18 7.88-3.99l.74 2.02s-4.47 3.69-7.46 3.73z" opacity=".1"/><path d="m161.04 113.61-3.1.5-.05 1.97h2.88s.25-2.22.27-2.46z" opacity=".1"/><path d="m161.16 15.52c-4.29 0-7.89-2.69-11.04-5.04-3.09-2.3-6-4.48-9.35-4.48-9.47 0-14.71 7.57-14.92 7.89l-4.16-2.78c.28-.41 6.88-10.11 19.08-10.11 5.01 0 8.91 2.91 12.34 5.48 5.41 4.04 8.67 6.47 14.89.26l3.54 3.54c-3.87 3.87-7.3 5.25-10.38 5.25z" fill="#dd2a2a" stroke="#2f4647" stroke-miterlimit="10" stroke-width="2"/><path d="m155.4 34.24c-3.84-1.91-5.86-5.92-7.64-9.43-1.74-3.44-3.37-6.69-6.37-8.18-8.48-4.22-16.54.22-16.88.42l-2.48-4.34c.43-.25 10.67-5.99 21.59-.55 4.49 2.23 6.68 6.57 8.61 10.4 3.04 6.02 4.88 9.66 13.21 6.87l1.59 4.74c-5.19 1.74-8.88 1.45-11.63.08z" fill="#dd2a2a" stroke="#2f4647" stroke-miterlimit="10" stroke-width="2"/><circle cx="122.77" cy="14.5" fill="#dd2a2a" r="4" stroke="#2f4647" stroke-miterlimit="10" stroke-width="2"/><path d="m50.36 52.16s-3.21-48.93 41.64-48.93 40.98 48.93 40.98 48.93-30.13-4.99-40.98 1.16c0 0-25.78-7.12-41.64-1.16z" fill="#d7d5d0" stroke="#2f4647" stroke-miterlimit="10" stroke-width="3"/><path d="m90.25 13.33c-34.87 0-30.98 36.18-30.98 36.18h.02c15.22-.71 31.3 3.8 31.3 3.8 7.09-4.08 21.79-3.69 32.29-2.74l1.03-.67s4.7-36.58-33.65-36.58z" fill="#536666" stroke="#2f4647" stroke-miterlimit="10" stroke-width="2"/><path d="m131.53 47.31c-21.3-5.72-39.76.7-39.76.7s-18.57-6.44-39.91-.67c-.11 2.74-.05 4.58-.05 4.58 15.86-5.97 40.2 1.39 40.2 1.39 10.85-6.15 39.58-1.22 39.58-1.22s.02-2.03-.05-4.79z" opacity=".1"/><path d="m70.31 27.43c-.81 4.61 2.27 9.02 6.88 9.83s9.02-2.27 9.83-6.88" fill="#dd2a2a"/><path d="m96.97 30.38c.81 4.61 5.21 7.7 9.83 6.88s7.7-5.21 6.88-9.83" fill="#dd2a2a"/><circle cx="82.11" cy="41.85" fill="#dd2a2a" r="1.84"/><circle cx="88.81" cy="41.85" fill="#dd2a2a" r="1.84"/><circle cx="95.51" cy="41.85" fill="#dd2a2a" r="1.84"/><path d="m73.81 33.78c.76-6.18 2.31-12.42 5.98-18.1-6.04 1.79-9.02 4.17-11.88 7.17-3.16 10.23-2.97 19.6-2.67 26.63 2.76.09 5.48.31 8.05.6-.21-4.09-.26-10.04.51-16.3z" fill="#fff" opacity=".3"/><path d="m62.33 14.73c-1.6 1.72-2.99 3.56-4.2 5.47 5.78.91 17.28 2.3 33.59 2.3s27.85-1.35 33.95-2.26c-1.18-1.92-2.55-3.77-4.14-5.5-6.44.82-16.71 1.76-29.81 1.76s-23.2-.95-29.39-1.77z" fill="#dd2a2a" stroke="#2f4647" stroke-miterlimit="10" stroke-width="2"/><circle cx="102.21" cy="41.85" fill="#dd2a2a" r="1.84"/><path d="m138.75 70.52c1.19-8.66 0-17.02 0-17.02-23.29-8.66-46.98-1.49-46.98-1.49s-23.69-7.17-46.98 1.49c0 0-1.19 8.36 0 17.02s-3.45 15.82-.53 25.68c2.92 9.85 13.88 37.32 47.51 45.08 33.63-7.76 44.59-35.23 47.51-45.08s-1.73-17.02-.53-25.68z" fill="#d7d5d0" stroke="#2f4647" stroke-miterlimit="10" stroke-width="3"/><path d="m86.09 101.75c-.64 0-1.15-.15-1.53-.44-.38-.3-.57-.65-.57-1.07v-23.97c0-.42.19-.78.57-1.07.38-.3.89-.44 1.53-.44h6.54c1.63 0 3.1.28 4.41.83 1.32.55 2.36 1.45 3.14 2.7.78 1.24 1.16 2.9 1.16 4.97v10.01c0 2.07-.39 3.72-1.16 4.97-.78 1.24-1.82 2.14-3.14 2.7-1.32.55-2.79.83-4.41.83h-6.54zm2.7-4.21h3.88c1.21 0 2.15-.35 2.84-1.05s1.03-1.78 1.03-3.23v-10.01c0-1.45-.34-2.53-1.03-3.23s-1.64-1.05-2.84-1.05h-3.88v18.58z" fill="#dd2a2a"/><path d="m62.89 124.14 17.05-19.95-2.8-4.55-10.38 5.62-7.12-9.59-12.38 4.54s6.26 16.84 15.62 23.92z" fill="#dd2a2a"/><path d="m84.29 137.47 4.52-20.05-8.86-4.69-11.34 16.28s5.62 5.54 15.69 8.45z" fill="#dd2a2a"/><path d="m120.48 124.31-17.05-19.95 2.8-4.55 10.37 5.63 7.13-9.59 12.52 4.59s-5.67 15.78-15.77 23.87z" fill="#dd2a2a"/><path d="m99.22 137.52-4.55-20.12 8.86-4.69 11.46 16.38s-6.11 5.08-15.77 8.43z" fill="#dd2a2a"/><path d="m131.5 74.33c1.01-7.32 0-14.39 0-14.39-19.69-7.32-39.73-1.26-39.73-1.26s-20.03-6.06-39.73 1.26c0 0-1.01 7.07 0 14.39s-2.92 13.38-.45 21.71 11.73 31.56 40.18 38.13c28.44-6.56 37.71-29.79 40.18-38.13 2.47-8.33-1.46-14.39-.45-21.71z" fill="none" stroke="#2f4647" stroke-miterlimit="10"/><path d="m107.77 71.77 21-4.92v14.23h-21z" fill="#dd2a2a"/><path d="m75.77 71.77-21-4.92v14.23h21z" fill="#dd2a2a"/><path d="m138.35 93.57c-.42.44-30.26 33.26-67.68 37.18 6.02 4.45 12.12 6.66 21.09 9 33.32-7.29 44.48-36.58 46.58-46.18z" opacity=".1"/></svg>